<svg width="24" height="24" viewBox="0 0 24 24" fill="none" xmlns="http://www.w3.org/2000/svg">
<path d="M22.3125 18.5625C22.3125 19.0598 22.115 19.5367 21.7633 19.8883C21.4117 20.24 20.9348 20.4375 20.4375 20.4375H3.5625C3.06522 20.4375 2.58831 20.24 2.23667 19.8883C1.88504 19.5367 1.6875 19.0598 1.6875 18.5625V8.25C1.6875 7.75272 1.88504 7.27581 2.23667 6.92417C2.58831 6.57254 3.06522 6.375 3.5625 6.375H7.3125L9.1875 3.5625H14.8125L16.6875 6.375H20.4375C20.9348 6.375 21.4117 6.57254 21.7633 6.92417C22.115 7.27581 22.3125 7.75272 22.3125 8.25V18.5625Z" stroke="#C90000" stroke-width="1.5" stroke-linecap="round" stroke-linejoin="round"/>
<path d="M8.25 12.9375C8.25 13.9321 8.64509 14.8859 9.34835 15.5892C10.0516 16.2924 11.0054 16.6875 12 16.6875C12.9946 16.6875 13.9484 16.2924 14.6517 15.5892C15.3549 14.8859 15.75 13.9321 15.75 12.9375C15.75 11.9429 15.3549 10.9891 14.6517 10.2858C13.9484 9.58259 12.9946 9.1875 12 9.1875C11.0054 9.1875 10.0516 9.58259 9.34835 10.2858C8.64509 10.9891 8.25 11.9429 8.25 12.9375Z" stroke="#C90000" stroke-width="1.5" stroke-linecap="round" stroke-linejoin="round"/>
</svg>
