<svg width="24" height="24" viewBox="0 0 24 24" fill="none" xmlns="http://www.w3.org/2000/svg">
<path d="M14.25 15.75C14.25 16.0455 14.3082 16.3381 14.4213 16.611C14.5343 16.884 14.7001 17.1321 14.909 17.341C15.1179 17.5499 15.366 17.7157 15.639 17.8287C15.9119 17.9418 16.2045 18 16.5 18C16.7955 18 17.0881 17.9418 17.361 17.8287C17.634 17.7157 17.8821 17.5499 18.091 17.341C18.2999 17.1321 18.4657 16.884 18.5787 16.611C18.6918 16.3381 18.75 16.0455 18.75 15.75C18.75 15.4545 18.6918 15.1619 18.5787 14.889C18.4657 14.616 18.2999 14.3679 18.091 14.159C17.8821 13.9501 17.634 13.7843 17.361 13.6713C17.0881 13.5582 16.7955 13.5 16.5 13.5C16.2045 13.5 15.9119 13.5582 15.639 13.6713C15.366 13.7843 15.1179 13.9501 14.909 14.159C14.7001 14.3679 14.5343 14.616 14.4213 14.889C14.3082 15.1619 14.25 15.4545 14.25 15.75Z" stroke="#C90000" stroke-width="1.5" stroke-linecap="round" stroke-linejoin="round"/>
<path d="M3.75 15.75C3.75 16.3467 3.98705 16.919 4.40901 17.341C4.83097 17.7629 5.40326 18 6 18C6.59674 18 7.16903 17.7629 7.59099 17.341C8.01295 16.919 8.25 16.3467 8.25 15.75C8.25 15.1533 8.01295 14.581 7.59099 14.159C7.16903 13.7371 6.59674 13.5 6 13.5C5.40326 13.5 4.83097 13.7371 4.40901 14.159C3.98705 14.581 3.75 15.1533 3.75 15.75Z" stroke="#C90000" stroke-width="1.5" stroke-linecap="round" stroke-linejoin="round"/>
<path d="M14.3812 16.5H8.11719" stroke="#C90000" stroke-width="1.5" stroke-linecap="round" stroke-linejoin="round"/>
<path d="M3.881 16.5H2.25C1.85218 16.5 1.47064 16.342 1.18934 16.0607C0.908035 15.7794 0.75 15.3978 0.75 15V13.5C0.75 12.7044 1.06607 11.9413 1.62868 11.3787C2.19129 10.8161 2.95435 10.5 3.75 10.5L5.585 6.829C5.70963 6.5798 5.9012 6.3703 6.13823 6.2239C6.37526 6.0774 6.64839 5.9999 6.927 6H11.827C12.1056 5.9999 12.3787 6.0774 12.6158 6.2239C12.8528 6.3703 13.0444 6.5798 13.169 6.829L15 10.5H20.25C21.0456 10.5 21.8087 10.8161 22.3713 11.3787C22.9339 11.9413 23.25 12.7044 23.25 13.5V15C23.25 15.3978 23.092 15.7794 22.8107 16.0607C22.5294 16.342 22.1478 16.5 21.75 16.5H18.62" stroke="#C90000" stroke-width="1.5" stroke-linecap="round" stroke-linejoin="round"/>
<path d="M15 10.5H3.75" stroke="#C90000" stroke-width="1.5" stroke-linecap="round" stroke-linejoin="round"/>
</svg>
