<svg width="24" height="24" viewBox="0 0 24 24" fill="none" xmlns="http://www.w3.org/2000/svg">
<path d="M20.9959 6.61104C21.2897 6.31904 21.2911 5.84417 20.9991 5.55039C20.9626 5.51366 20.9233 5.48151 20.8818 5.45393C20.7846 5.38934 20.6757 5.34981 20.5641 5.33536C20.5089 5.3282 20.453 5.32719 20.3976 5.33232C20.2302 5.34783 20.067 5.41942 19.9385 5.54717L8.97627 16.4431L4.05983 11.5588C3.76598 11.2669 3.29111 11.2685 2.99918 11.5623C2.70725 11.8562 2.70881 12.3311 3.00266 12.623L8.44782 18.0325C8.74036 18.3231 9.21265 18.3231 9.50512 18.0324L20.9959 6.61104Z" fill="#C90000"/>
</svg>
