<svg width="24" height="24" viewBox="0 0 24 24" fill="none" xmlns="http://www.w3.org/2000/svg">
<mask id="path-1-inside-1_8533_2382" fill="white">
<path d="M19.2147 6.28193C19.5085 5.98993 19.5099 5.51506 19.2179 5.22128C19.1814 5.18455 19.1421 5.1524 19.1006 5.12482C19.0034 5.06023 18.8945 5.0207 18.7829 5.00625C18.7277 4.99909 18.6718 4.99808 18.6164 5.00321C18.449 5.01872 18.2858 5.09031 18.1573 5.21806L7.19502 16.114L2.27858 11.2297C1.98473 10.9378 1.50986 10.9394 1.21793 11.2332C0.926002 11.5271 0.927562 12.002 1.22141 12.2939L6.66657 17.7034C6.95911 17.994 7.4314 17.994 7.72387 17.7033L19.2147 6.28193Z"/>
</mask>
<path d="M19.2147 6.28193C19.5085 5.98993 19.5099 5.51506 19.2179 5.22128C19.1814 5.18455 19.1421 5.1524 19.1006 5.12482C19.0034 5.06023 18.8945 5.0207 18.7829 5.00625C18.7277 4.99909 18.6718 4.99808 18.6164 5.00321C18.449 5.01872 18.2858 5.09031 18.1573 5.21806L7.19502 16.114L2.27858 11.2297C1.98473 10.9378 1.50986 10.9394 1.21793 11.2332C0.926002 11.5271 0.927562 12.002 1.22141 12.2939L6.66657 17.7034C6.95911 17.994 7.4314 17.994 7.72387 17.7033L19.2147 6.28193Z" fill="#C90000"/>
<path d="M19.2147 6.28193L17.5228 4.57967L17.5228 4.57974L19.2147 6.28193ZM19.2179 5.22128L17.5155 6.913L17.5157 6.91318L19.2179 5.22128ZM19.1006 5.12482L20.429 3.12598L20.4289 3.12591L19.1006 5.12482ZM18.7829 5.00625L18.4742 7.38632L18.4747 7.38639L18.7829 5.00625ZM18.6164 5.00321L18.3951 2.61344L18.395 2.61345L18.6164 5.00321ZM18.1573 5.21806L19.8492 6.92026L19.8494 6.92008L18.1573 5.21806ZM7.19502 16.114L5.50354 17.8166L7.19543 19.4974L8.88692 17.8162L7.19502 16.114ZM2.27858 11.2297L3.97006 9.52705L3.96998 9.52697L2.27858 11.2297ZM1.21793 11.2332L-0.484534 9.54153L-0.484822 9.54182L1.21793 11.2332ZM1.22141 12.2939L2.91288 10.5912L2.91281 10.5912L1.22141 12.2939ZM6.66657 17.7034L4.9751 19.406L4.97517 19.4061L6.66657 17.7034ZM7.72387 17.7033L9.41577 19.4055L9.41577 19.4055L7.72387 17.7033ZM20.9065 7.9842C22.1407 6.7576 22.1463 4.7631 20.9201 3.52939L17.5157 6.91318C16.8734 6.26703 16.8763 5.22226 17.5228 4.57967L20.9065 7.9842ZM20.9202 3.52957C20.7698 3.37819 20.6052 3.24312 20.429 3.12598L17.7722 7.12367C17.6789 7.06168 17.5929 6.99092 17.5155 6.913L20.9202 3.52957ZM20.4289 3.12591C20.0179 2.85284 19.5585 2.68665 19.0911 2.62612L18.4747 7.38639C18.2305 7.35476 17.9888 7.26763 17.7723 7.12374L20.4289 3.12591ZM19.0916 2.62619C18.8602 2.59618 18.6266 2.592 18.3951 2.61344L18.8377 7.39299C18.717 7.40417 18.5951 7.402 18.4742 7.38632L19.0916 2.62619ZM18.395 2.61345C17.693 2.67849 17.0036 2.98079 16.4652 3.51605L19.8494 6.92008C19.5679 7.19984 19.205 7.35896 18.8378 7.39298L18.395 2.61345ZM16.4654 3.51586L5.50312 14.4118L8.88692 17.8162L19.8492 6.92026L16.4654 3.51586ZM8.8865 14.4114L3.97006 9.52705L0.5871 12.9323L5.50354 17.8166L8.8865 14.4114ZM3.96998 9.52697C2.73565 8.30083 0.741374 8.30777 -0.484534 9.54153L2.9204 12.9248C2.27835 13.571 1.23381 13.5747 0.587184 12.9324L3.96998 9.52697ZM-0.484822 9.54182C-1.71063 10.7759 -1.70439 12.7703 -0.469986 13.9966L2.91281 10.5912C3.55951 11.2336 3.56263 12.2782 2.92069 12.9245L-0.484822 9.54182ZM-0.470061 13.9965L4.9751 19.406L8.35804 16.0007L2.91288 10.5912L-0.470061 13.9965ZM4.97517 19.4061C6.2036 20.6263 8.18717 20.6266 9.41577 19.4055L6.03197 16.0011C6.67563 15.3613 7.71462 15.3616 8.35797 16.0007L4.97517 19.4061ZM9.41577 19.4055L20.9066 7.98413L17.5228 4.57974L6.03197 16.0011L9.41577 19.4055Z" fill="#C90000" mask="url(#path-1-inside-1_8533_2382)"/>
<mask id="path-3-inside-2_8533_2382" fill="white">
<path d="M23.3033 6.28193C23.5971 5.98993 23.5985 5.51506 23.3065 5.22128C23.27 5.18455 23.2307 5.1524 23.1892 5.12482C23.092 5.06023 22.9831 5.0207 22.8715 5.00625C22.8163 4.99909 22.7604 4.99808 22.705 5.00321C22.5376 5.01872 22.3744 5.09031 22.2459 5.21806L11.2836 16.114L10.0879 15.1699C9.79404 14.878 9.88045 15.3761 9.58852 15.6699C9.29659 15.9638 8.79542 15.8221 9.08927 16.114L10.7552 17.7034C11.0477 17.994 11.52 17.994 11.8125 17.7033L23.3033 6.28193Z"/>
</mask>
<path d="M23.3033 6.28193L21.6114 4.57967L21.6114 4.57974L23.3033 6.28193ZM23.3065 5.22128L21.6041 6.913L21.6043 6.91318L23.3065 5.22128ZM23.1892 5.12482L24.5176 3.12598L24.5175 3.12591L23.1892 5.12482ZM22.8715 5.00625L22.5627 7.38632L22.5633 7.38639L22.8715 5.00625ZM22.705 5.00321L22.4837 2.61344L22.4835 2.61345L22.705 5.00321ZM22.2459 5.21806L23.9378 6.92026L23.938 6.92008L22.2459 5.21806ZM11.2836 16.114L9.79642 17.9976L11.4664 19.3161L12.9755 17.8162L11.2836 16.114ZM10.0879 15.1699L8.39649 16.8726L8.49344 16.9689L8.6007 17.0536L10.0879 15.1699ZM9.58852 15.6699L7.88605 13.9783L7.88577 13.9786L9.58852 15.6699ZM9.08927 16.114L7.39787 17.8167L7.41504 17.8337L7.43255 17.8504L9.08927 16.114ZM10.7552 17.7034L12.4466 16.0007L12.4294 15.9836L12.4119 15.9669L10.7552 17.7034ZM11.8125 17.7033L13.5044 19.4055L13.5044 19.4055L11.8125 17.7033ZM24.9951 7.9842C26.2293 6.7576 26.2349 4.7631 25.0087 3.52939L21.6043 6.91318C20.962 6.26703 20.9649 5.22226 21.6114 4.57967L24.9951 7.9842ZM25.0088 3.52957C24.8584 3.37819 24.6938 3.24312 24.5176 3.12598L21.8608 7.12367C21.7675 7.06168 21.6815 6.99092 21.6041 6.913L25.0088 3.52957ZM24.5175 3.12591C24.1065 2.85284 23.6471 2.68665 23.1796 2.62612L22.5633 7.38639C22.3191 7.35476 22.0774 7.26763 21.8609 7.12374L24.5175 3.12591ZM23.1802 2.62619C22.9488 2.59618 22.7152 2.592 22.4837 2.61344L22.9263 7.39299C22.8056 7.40417 22.6837 7.402 22.5627 7.38632L23.1802 2.62619ZM22.4835 2.61345C21.7816 2.67849 21.0922 2.98079 20.5538 3.51605L23.938 6.92008C23.6565 7.19984 23.2936 7.35896 22.9264 7.39298L22.4835 2.61345ZM20.554 3.51586L9.59172 14.4118L12.9755 17.8162L23.9378 6.92026L20.554 3.51586ZM12.7708 14.2303L11.5751 13.2862L8.6007 17.0536L9.79642 17.9976L12.7708 14.2303ZM11.7793 13.4672C11.6676 13.3563 11.4386 13.1423 11.1045 12.9679C10.7474 12.7815 10.0903 12.5528 9.2992 12.7671C8.53857 12.9733 8.1104 13.4686 7.9276 13.7235C7.74781 13.9741 7.65068 14.2081 7.61981 14.2827C7.59853 14.3342 7.58141 14.3792 7.57139 14.4059C7.56612 14.4199 7.56118 14.4332 7.55777 14.4424C7.55388 14.4529 7.55162 14.459 7.54931 14.4652C7.53977 14.4907 7.54572 14.4731 7.55967 14.4421C7.58672 14.382 7.68042 14.1852 7.88605 13.9783L11.291 17.3616C11.6426 17.0077 11.835 16.6385 11.9371 16.4115C11.9886 16.297 12.0262 16.1974 12.0454 16.1461C12.0753 16.0661 12.0633 16.0982 12.0552 16.1178C12.0501 16.1301 11.9788 16.3109 11.8279 16.5213C11.6739 16.7359 11.2775 17.2041 10.5547 17.4C9.80142 17.6042 9.18805 17.3821 8.88358 17.2232C8.60213 17.0763 8.43474 16.9106 8.39649 16.8726L11.7793 13.4672ZM7.88577 13.9786C8.28042 13.5813 8.87647 13.4589 8.42505 13.5953C8.37422 13.6106 8.13926 13.6793 7.88204 13.8211C7.64357 13.9527 6.99151 14.3609 6.71381 15.2396C6.42509 16.1531 6.74999 16.8927 6.9223 17.1992C7.09684 17.5097 7.30324 17.7227 7.39787 17.8167L10.7807 14.4113C10.8018 14.4323 10.9596 14.5858 11.1065 14.847C11.2511 15.1043 11.5692 15.8047 11.2907 16.686C11.0232 17.5323 10.3984 17.9149 10.2002 18.0242C10.0764 18.0925 9.97407 18.1334 9.92107 18.1534C9.86533 18.1743 9.82434 18.1868 9.8134 18.1901C9.68551 18.2288 10.0224 18.1347 10.2194 18.0577C10.4917 17.9513 10.905 17.7501 11.2913 17.3613L7.88577 13.9786ZM7.43255 17.8504L9.09845 19.4398L12.4119 15.9669L10.746 14.3775L7.43255 17.8504ZM9.06376 19.4061C10.2922 20.6263 12.2758 20.6266 13.5044 19.4055L10.1206 16.0011C10.7642 15.3613 11.8032 15.3616 12.4466 16.0007L9.06376 19.4061ZM13.5044 19.4055L24.9952 7.98413L21.6114 4.57974L10.1206 16.0011L13.5044 19.4055Z" fill="#C90000" mask="url(#path-3-inside-2_8533_2382)"/>
</svg>
