<svg width="24" height="24" viewBox="0 0 24 24" fill="none" xmlns="http://www.w3.org/2000/svg">
<path d="M2.13672 4.15625C2.13672 3.05168 3.03215 2.15625 4.13672 2.15625H12.6617C13.7663 2.15625 14.6617 3.05168 14.6617 4.15625V8.20938C14.6617 9.31395 13.7663 10.2094 12.6617 10.2094H4.13672C3.03215 10.2094 2.13672 9.31394 2.13672 8.20938V4.15625Z" stroke="#C90000" stroke-width="1.5" stroke-miterlimit="10"/>
<path d="M3.02734 10.209H13.7617V21.8434H3.02734V10.209Z" stroke="#C90000" stroke-width="1.5" stroke-miterlimit="10"/>
<path d="M15.5633 21.8438H1.23828" stroke="#C90000" stroke-width="1.5" stroke-miterlimit="10"/>
<path d="M10.3492 17.2125C10.3492 17.7297 10.1438 18.2257 9.77808 18.5914C9.41238 18.9571 8.91639 19.1625 8.39922 19.1625C7.88205 19.1625 7.38606 18.9571 7.02036 18.5914C6.65467 18.2257 6.44922 17.7297 6.44922 17.2125C6.44922 15.5437 8.39922 13.5938 8.39922 13.5938C8.39922 13.5938 10.3492 15.5437 10.3492 17.2125Z" stroke="#C90000" stroke-width="1.5" stroke-miterlimit="10"/>
<path d="M5.71875 4.83789V7.52852" stroke="#C90000" stroke-width="1.5" stroke-miterlimit="10"/>
<path d="M8.39844 4.83789V7.52852" stroke="#C90000" stroke-width="1.5" stroke-miterlimit="10"/>
<path d="M11.082 4.83789V7.52852" stroke="#C90000" stroke-width="1.5" stroke-miterlimit="10"/>
<path d="M13.7734 10.2094H16.4547C16.9288 10.2118 17.3829 10.4013 17.7181 10.7366C18.0534 11.0718 18.2428 11.5259 18.2453 12V19.1625C18.2453 19.6374 18.434 20.0929 18.7698 20.4287C19.1056 20.7645 19.561 20.9531 20.0359 20.9531C20.5101 20.9507 20.9641 20.7612 21.2994 20.4259C21.6347 20.0907 21.8241 19.6366 21.8266 19.1625V6.62813L18.2453 3.04688" stroke="#C90000" stroke-width="1.5" stroke-miterlimit="10"/>
<path d="M20.5602 5.37207C20.3933 5.53587 20.2609 5.7314 20.1707 5.94715C20.0806 6.16289 20.0345 6.39449 20.0352 6.62832C20.0376 7.10246 20.2271 7.55649 20.5623 7.89176C20.8976 8.22704 21.3516 8.41648 21.8258 8.41895" stroke="#C90000" stroke-width="1.5" stroke-miterlimit="10"/>
</svg>
