<svg width="24" height="24" viewBox="0 0 24 24" fill="none" xmlns="http://www.w3.org/2000/svg">
<path d="M14.6797 2.15625H17.1609C18.2655 2.15625 19.1609 3.05168 19.1609 4.15625V19.8438C19.1609 20.9483 18.2655 21.8438 17.1609 21.8438H16.6797C15.5751 21.8438 14.7174 20.8353 13.9677 20.0241C13.9438 19.9982 13.9194 19.9728 13.8944 19.9478C13.3915 19.445 12.7095 19.1625 11.9984 19.1625C11.2873 19.1625 10.6053 19.445 10.1025 19.9478C10.0775 19.9728 10.0531 19.9982 10.0292 20.0241C9.27952 20.8353 8.42176 21.8438 7.31719 21.8438H6.83594C5.73137 21.8438 4.83594 20.9483 4.83594 19.8438V4.15625C4.83594 3.05168 5.73137 2.15625 6.83594 2.15625H14.6797Z" fill="white" stroke="#C90000" stroke-width="1.5" stroke-miterlimit="10"/>
<path d="M8.41797 11.1002L11.0992 13.7908L16.4711 8.41895" fill="white"/>
<path d="M8.41797 11.1002L11.0992 13.7908L16.4711 8.41895" stroke="#C90000" stroke-width="1.5" stroke-miterlimit="10"/>
</svg>
