<svg width="24" height="24" viewBox="0 0 24 24" fill="none" xmlns="http://www.w3.org/2000/svg">
<path d="M11.4296 6.09089C13.1775 6.09436 14.2738 4.20442 13.4028 2.68895C12.997 1.98285 12.244 1.54821 11.4296 1.54981C9.68173 1.55329 8.59306 3.44758 9.46998 4.95958C9.87542 5.65848 10.6217 6.08929 11.4296 6.09089Z" stroke="#C90000" stroke-width="1.5" stroke-linecap="round" stroke-linejoin="round"/>
<path d="M17.4792 10.9048L16.4801 10.5705C15.9694 10.4008 15.4895 10.1496 15.0587 9.82671L14.136 9.13377C12.5687 7.9593 10.4728 7.7698 8.72024 8.64423C6.79248 9.59868 5.5605 11.5512 5.52881 13.7021C5.49908 14.3576 5.92393 14.9475 6.55509 15.1271C7.38964 15.3382 8.20835 14.7318 8.24983 13.872C8.24867 12.7202 8.87529 11.6594 9.88466 11.1046L10.0662 11.0137V12.625C10.0662 13.9138 9.92551 15.198 9.64576 16.4559C9.27112 17.8476 8.58468 19.1359 7.6386 20.2232C6.98527 21.0436 7.46503 22.2637 8.50225 22.4193C8.98362 22.4915 9.46694 22.3014 9.77019 21.9207C10.8784 20.5221 11.7077 18.9237 12.2133 17.2125C13.336 18.4464 14.1776 19.9093 14.6801 21.5001C14.9979 22.4995 16.2785 22.7799 16.9851 22.005C17.3219 21.6356 17.4293 21.1114 17.2648 20.6391C16.4917 18.1883 15.0558 15.999 13.1161 14.3133C12.9134 14.1439 12.7955 13.8937 12.7937 13.6294V11.5333L13.4212 12.0037C14.087 12.5032 14.829 12.892 15.6174 13.1545L16.6854 13.5105C17.4886 13.7796 18.34 13.2583 18.4655 12.4207C18.5467 11.7436 18.1309 11.1054 17.4792 10.9048Z" stroke="#C90000" stroke-width="1.5" stroke-linecap="round" stroke-linejoin="round"/>
</svg>
