<svg width="160" height="106" viewBox="0 0 160 106" fill="none" xmlns="http://www.w3.org/2000/svg">
<path d="M153.227 18.3267L139.475 32.0773C139.193 32.3589 138.786 32.4731 138.398 32.3766C135.773 31.7268 133.061 31.142 130.266 30.628C120.863 28.8833 110.577 27.9244 99.7985 27.9244C55.112 27.9244 18.8877 44.4062 18.8877 64.7359C18.8877 85.0655 54.2356 95.6104 63.2927 97.5973L63.0879 97.802C29.7782 90.6737 6.43945 74.1347 6.43945 54.8723C6.43945 29.094 48.2389 8.19531 99.8005 8.19531C119.48 8.19531 137.738 11.2396 152.792 16.4382C153.589 16.7139 153.826 17.728 153.229 18.3247L153.227 18.3267Z" fill="url(#paint0_linear_4311_6592)"/>
<path d="M119.301 41.5908L109.165 51.7261C109.015 51.8757 108.81 51.9565 108.598 51.9466C105.722 51.8226 102.784 51.7596 99.7966 51.7596C65.4235 51.7596 37.5552 60.1738 37.5552 70.5454C37.5552 72.676 38.7289 74.7239 40.8933 76.632C41.0666 76.7856 40.8578 77.0574 40.6628 76.9353C34.7292 73.2313 31.3301 68.9188 31.3301 64.3208C31.3301 50.5111 61.985 39.3145 99.7966 39.3145C106.408 39.3145 112.802 39.6551 118.848 40.2951C119.482 40.362 119.752 41.1379 119.301 41.5888V41.5908Z" fill="url(#paint1_linear_4311_6592)"/>
<path d="M90.6868 59.1631L85.1687 64.6807C85.0387 64.8107 84.8713 64.8816 84.698 64.8973C68.0786 66.2049 56.229 69.6076 56.229 73.601C56.229 76.2279 61.3474 78.6007 69.5753 80.2844L69.5143 80.3454C57.6509 78.0986 50.0039 74.562 50.0039 70.5902C50.0039 64.5901 67.3893 59.6023 90.3973 58.5192C90.7439 58.4995 90.929 58.9229 90.6868 59.1651V59.1631Z" fill="url(#paint2_linear_4311_6592)"/>
<defs>
<linearGradient id="paint0_linear_4311_6592" x1="6.43748" y1="52.9997" x2="153.562" y2="52.9997" gradientUnits="userSpaceOnUse">
<stop stop-color="#7D1202"/>
<stop offset="0.6" stop-color="#A40901"/>
<stop offset="1" stop-color="#C93C3C"/>
</linearGradient>
<linearGradient id="paint1_linear_4311_6592" x1="31.332" y1="58.1416" x2="119.526" y2="58.1416" gradientUnits="userSpaceOnUse">
<stop stop-color="#7D1202"/>
<stop offset="0.6" stop-color="#A40901"/>
<stop offset="1" stop-color="#C93C3C"/>
</linearGradient>
<linearGradient id="paint2_linear_4311_6592" x1="50.0059" y1="69.4303" x2="90.7971" y2="69.4303" gradientUnits="userSpaceOnUse">
<stop stop-color="#7D1202"/>
<stop offset="0.6" stop-color="#A40901"/>
<stop offset="1" stop-color="#C93C3C"/>
</linearGradient>
</defs>
</svg>
