<svg width="301" height="48" viewBox="0 0 301 48" fill="none" xmlns="http://www.w3.org/2000/svg">
<path d="M50.3216 36.3747H31.5428C31.3339 36.3747 31.1906 36.2055 31.2234 35.9949L35.0179 12.1718C35.0507 11.9629 35.2475 11.792 35.4581 11.792H40.7647C40.9736 11.792 41.1169 11.9612 41.0841 12.1718L38.0821 31.0214C38.0493 31.2303 38.1908 31.4012 38.4014 31.4012H51.114C51.3229 31.4012 51.4661 31.5703 51.4333 31.7809L50.7618 35.9949C50.729 36.2038 50.5322 36.3747 50.3216 36.3747Z" fill="white"/>
<path d="M68.3085 36.9741C63.0657 36.9741 59.3542 35.9159 57.1755 33.7994C54.9969 31.6829 54.2615 28.4029 54.9693 23.9594C55.6616 19.6108 57.431 16.3947 60.2795 14.3145C63.1261 12.2343 67.1709 11.1934 72.4154 11.1934C77.66 11.1934 81.4078 12.2274 83.595 14.2973C85.7805 16.3671 86.5263 19.5867 85.8289 23.9612C85.1176 28.4288 83.3412 31.714 80.5032 33.8184C77.6634 35.9228 73.5997 36.9741 68.3085 36.9741ZM69.1078 31.9678C72.4465 31.9678 74.9427 31.3498 76.5965 30.1154C78.2504 28.8811 79.3069 26.8303 79.7626 23.9612C80.2114 21.1404 79.8006 19.1413 78.5317 17.9657C77.2888 16.7659 74.9859 16.1669 71.623 16.1669C68.2602 16.1669 65.7674 16.7659 64.1429 17.9657C62.5168 19.1655 61.4827 21.1628 61.0373 23.9612C60.5798 26.8303 60.9821 28.8811 62.244 30.1154C63.5042 31.3498 65.7933 31.9678 69.1078 31.9678Z" fill="white"/>
<path d="M105.895 29.1071C105.693 28.9069 105.843 28.5271 106.154 28.4511C110.735 27.3394 113.373 24.6083 114.067 20.258C114.967 14.6147 111.488 11.7939 103.637 11.7939H91.9894C91.7805 11.7939 91.5837 11.9631 91.5492 12.1737L87.7547 35.9968C87.7219 36.2057 87.8635 36.3766 88.0741 36.3766H93.31C93.5189 36.3766 93.7157 36.2074 93.7502 35.9968L96.7643 17.0765C96.7971 16.8676 96.9939 16.6967 97.2045 16.6967H102.856C104.854 16.6967 106.273 16.9798 107.112 17.5443C107.951 18.1088 108.27 19.0134 108.073 20.2598C107.856 21.6236 107.234 22.611 106.209 23.2221C105.184 23.8332 103.67 24.1388 101.672 24.1388H98.9826C98.7738 24.1388 98.577 24.308 98.5424 24.5186L97.8554 28.8309C97.8381 28.9414 97.8692 29.0467 97.9434 29.1192L105.203 36.2851C105.261 36.3438 105.344 36.3766 105.434 36.3766H112.203C112.555 36.3766 112.786 35.9381 112.557 35.7085L105.898 29.1071H105.895Z" fill="white"/>
<path d="M121.842 36.3747H116.535C116.326 36.3747 116.183 36.2055 116.216 35.9949L120.01 12.1718C120.043 11.9629 120.24 11.792 120.45 11.792H125.757C125.966 11.792 126.109 11.9612 126.076 12.1718L122.282 35.9949C122.249 36.2038 122.052 36.3747 121.842 36.3747Z" fill="white"/>
<path d="M155.788 14.7218C153.488 12.771 149.576 11.7939 144.052 11.7939H140.375C140.166 11.7939 139.969 11.9631 139.935 12.1737L139.258 16.4222C139.225 16.6311 139.367 16.802 139.578 16.802H143.36C146.863 16.802 149.309 17.3544 150.695 18.4592C152.083 19.5658 152.577 21.3629 152.18 23.8557C151.757 26.5125 150.705 28.4287 149.024 29.6043C147.344 30.7799 144.822 31.3686 141.461 31.3686H134.293C134.084 31.3686 133.941 31.1994 133.974 30.9888L136.971 12.1737C137.004 11.9648 136.862 11.7939 136.652 11.7939H131.345C131.136 11.7939 130.939 11.9631 130.905 12.1737L127.11 35.9968C127.077 36.2057 127.219 36.3766 127.43 36.3766H140.805C146.072 36.3766 150.124 35.3598 152.963 33.3262C155.803 31.2926 157.564 28.1369 158.246 23.8574C158.928 19.5779 158.085 16.676 155.786 14.7235L155.788 14.7218Z" fill="white"/>
<path d="M185.528 36.3751H180.19C180.026 36.3751 179.898 36.2698 179.871 36.1162L176.56 17.0266C176.532 16.8713 176.404 16.7677 176.24 16.7677H173.366C173.202 16.7677 173.042 16.873 172.966 17.0266L163.573 36.1162C163.497 36.2715 163.334 36.3751 163.172 36.3751H157.8C157.541 36.3751 157.399 36.1213 157.52 35.8762L166.925 16.7677L169.245 12.0548C169.321 11.8995 169.484 11.7959 169.646 11.7959H181.547C181.711 11.7959 181.839 11.9012 181.866 12.0566L182.678 16.7694L185.968 35.8797C186.01 36.1248 185.787 36.3786 185.528 36.3786V36.3751Z" fill="white"/>
<path d="M31.1393 12.1752L30.4677 16.3874C30.4349 16.5963 30.2381 16.7655 30.0292 16.7655H16.9973C16.7867 16.7655 16.5916 16.9364 16.5588 17.1436L15.6732 22.6988C15.6404 22.9077 15.782 23.0769 15.9909 23.0769H24.0718C24.2806 23.0769 24.4239 23.2461 24.3894 23.4549L23.7179 27.6706C23.6851 27.8795 23.4865 28.0487 23.2794 28.0487H15.1985C14.9896 28.0487 14.7928 28.2178 14.76 28.4267L13.5551 35.9897C13.5223 36.1986 13.3237 36.3712 13.1131 36.3712H7.80645C7.59757 36.3712 7.45428 36.202 7.48881 35.9931L10.5271 16.9191C10.5427 16.819 10.5185 16.7223 10.4581 16.6516L6.91395 12.4394C6.7137 12.2011 6.94675 11.792 7.28511 11.792H30.8182C31.0271 11.792 31.1721 11.9629 31.1393 12.1735V12.1752Z" fill="white"/>
<path d="M294.124 32.2787H199.089C198.46 32.2787 197.949 31.7677 197.949 31.1394V17.0319C197.949 16.4036 198.46 15.8926 199.089 15.8926H294.124C294.752 15.8926 295.263 16.4036 295.263 17.0319V31.1394C295.263 31.7677 294.752 32.2787 294.124 32.2787ZM199.192 31.034H294.02V17.1338H199.192V31.034Z" fill="white"/>
<path d="M207.969 25.4283C209.42 25.1365 210.146 24.3096 210.146 22.9476C210.146 21.2748 208.981 20.4375 206.652 20.4375H203.084V27.7294H204.864V21.8911H206.652C207.246 21.8911 207.679 21.9739 207.956 22.1414C208.232 22.3088 208.37 22.5781 208.37 22.9476C208.37 23.3532 208.232 23.645 207.956 23.828C207.679 24.0092 207.246 24.099 206.652 24.099H205.743V25.5439L208.306 27.7312H210.659L207.969 25.43V25.4283Z" fill="white"/>
<path d="M287.436 25.4283C288.886 25.1365 289.613 24.3096 289.613 22.9476C289.613 21.2748 288.448 20.4375 286.119 20.4375H282.551V27.7294H284.331V21.8911H286.119C286.713 21.8911 287.146 21.9739 287.422 22.1414C287.699 22.3088 287.837 22.5781 287.837 22.9476C287.837 23.3532 287.699 23.645 287.422 23.828C287.146 24.0092 286.713 24.099 286.119 24.099H285.209V25.5439L287.773 27.7312H290.126L287.436 25.43V25.4283Z" fill="white"/>
<path d="M218.861 27.7314H212.574V20.4395H218.789V21.8516H214.375V23.2861H218.433V24.6983H214.375V26.3193H218.863V27.7314H218.861Z" fill="white"/>
<path d="M227.869 26.0877V20.4375H229.668V27.7294H226.676L223.265 22.0689H222.992V27.7294H221.193V20.4375H224.185L227.586 26.0877H227.867H227.869Z" fill="white"/>
<path d="M236.248 27.7314H234.449V21.9154H231.729V20.4395H238.958V21.9154H236.248V27.7314Z" fill="white"/>
<path d="M245.539 20.4395H241.847L239.418 27.7314H241.25L243.185 21.9137H244.2L246.135 27.7314H247.955L245.538 20.4395H245.539Z" fill="white"/>
<path d="M255.727 27.7314H249.932V20.4395H251.73V26.2554H255.727V27.7314Z" fill="white"/>
<path d="M266.316 27.909C264.781 27.909 263.654 27.5966 262.932 26.9734C262.21 26.3502 261.85 25.3748 261.85 24.049C261.85 22.7232 262.217 21.8048 262.953 21.1868C263.688 20.5688 264.831 20.2598 266.379 20.2598C269.022 20.2598 270.445 21.2472 270.649 23.2204H268.871C268.808 22.6973 268.574 22.3193 268.17 22.0862C267.766 21.8514 267.168 21.7358 266.381 21.7358C265.397 21.7358 264.698 21.9136 264.279 22.2692C263.861 22.6248 263.65 23.2204 263.65 24.0576C263.65 24.8949 263.856 25.5078 264.268 25.8772C264.672 26.2397 265.359 26.421 266.329 26.421C267.988 26.421 268.86 25.8565 268.945 24.7257H270.733C270.649 25.7719 270.233 26.5643 269.483 27.1011C268.734 27.638 267.679 27.9073 266.319 27.9073L266.316 27.909Z" fill="white"/>
<path d="M278.157 20.4395H274.464L272.035 27.7314H273.867L275.802 21.9137H276.817L278.752 27.7314H280.572L278.155 20.4395H278.157Z" fill="white"/>
</svg>
