<svg width="24" height="24" viewBox="0 0 24 24" fill="none" xmlns="http://www.w3.org/2000/svg">
<path d="M8.50093 8.49994C8.79382 8.20705 9.2687 8.20705 9.56159 8.49994L12.001 10.9392L14.4403 8.49994C14.7332 8.20705 15.2081 8.20705 15.5009 8.49994C15.7938 8.79284 15.7938 9.26771 15.5009 9.5606L13.0616 11.9999L15.501 14.4392C15.7939 14.7321 15.7939 15.207 15.501 15.4999C15.2081 15.7928 14.7332 15.7928 14.4403 15.4999L12.001 13.0606L9.56158 15.4999C9.52496 15.5365 9.48551 15.5686 9.44392 15.596C9.15281 15.7882 8.75721 15.7562 8.50093 15.4999C8.20803 15.207 8.20803 14.7321 8.50093 14.4392L10.9403 11.9999L8.50093 9.5606C8.20804 9.26771 8.20804 8.79284 8.50093 8.49994Z" fill="#C90000"/>
<path fill-rule="evenodd" clip-rule="evenodd" d="M22.0001 12C22.0001 17.5228 17.5229 22 12 22C6.47716 22 2 17.5228 2 12C2 6.47715 6.47716 2 12 2C17.5229 2 22.0001 6.47715 22.0001 12ZM20.5001 12C20.5001 16.6944 16.6944 20.5 12 20.5C7.30558 20.5 3.5 16.6944 3.5 12C3.5 7.30558 7.30558 3.5 12 3.5C16.6944 3.5 20.5001 7.30558 20.5001 12Z" fill="#C90000"/>
</svg>
