<svg width="24" height="24" viewBox="0 0 24 24" fill="none" xmlns="http://www.w3.org/2000/svg">
<path d="M8.54389 18.8942L15.4382 11.9999L8.54389 5.10552C8.50727 5.06891 8.47524 5.02945 8.44778 4.98786C8.38393 4.89116 8.34483 4.78293 8.33047 4.6721C8.3263 4.63994 8.32422 4.60756 8.32422 4.57519C8.32422 4.40621 8.38096 4.23724 8.49446 4.0993C8.50989 4.08056 8.52636 4.06238 8.54389 4.04486C8.55761 4.03113 8.57174 4.01804 8.58624 4.0056C8.8809 3.75261 9.32538 3.7657 9.60455 4.04486L17.0291 11.4695C17.1698 11.6102 17.2488 11.801 17.2488 11.9999C17.2488 12.1988 17.1698 12.3895 17.0291 12.5302L9.60455 19.9548C9.56793 19.9914 9.52848 20.0235 9.48689 20.0509C9.19578 20.2431 8.80017 20.2111 8.54389 19.9548C8.50727 19.9182 8.47524 19.8787 8.44778 19.8372C8.25557 19.546 8.2876 19.1504 8.54389 18.8942Z" fill="#C90000"/>
</svg>
