<svg width="24" height="24" viewBox="0 0 24 24" fill="none" xmlns="http://www.w3.org/2000/svg">
<g clip-path="url(#clip0_6367_15109)">
<mask id="mask0_6367_15109" style="mask-type:luminance" maskUnits="userSpaceOnUse" x="0" y="0" width="24" height="24">
<path d="M24 0H0V24H24V0Z" fill="white"/>
</mask>
<g mask="url(#mask0_6367_15109)">
<path fill-rule="evenodd" clip-rule="evenodd" d="M1.36191 13.2333C0.498805 12.0055 0 10.5545 0 9C0 4.58172 4.02944 1 9 1C13.9706 1 18 4.58172 18 9C18 13.39 14.0221 16.954 9.09547 16.9996C9.06369 16.9999 9.03187 17 9 17C8.39569 17 7.80529 16.9471 7.23434 16.8461C7.18611 16.8376 7.13802 16.8287 7.09007 16.8195C6.5704 16.7197 6.06745 16.58 5.58545 16.4042L1.73074 17.5055C0.976391 17.721 0.278969 17.0236 0.494498 16.2693L1.36191 13.2333ZM2.58906 12.3707C2.84958 12.7413 2.92865 13.2098 2.80419 13.6454L2.18403 15.816L5.17337 14.9619C5.47783 14.8749 5.80201 14.8865 6.09947 14.995C6.98793 15.3191 7.96696 15.5 9 15.5C13.3131 15.5 16.5 12.4286 16.5 9C16.5 5.57136 13.3131 2.5 9 2.5C4.68689 2.5 1.5 5.57136 1.5 9C1.5 10.2251 1.89127 11.378 2.58906 12.3707Z" fill="white"/>
<path d="M18.8904 5.78418C19.1361 6.4057 19.3126 7.06003 19.4107 7.74087C21.3146 8.95041 22.5004 10.909 22.5004 13.0004C22.5004 14.2255 22.1091 15.3784 21.4114 16.3711C21.1508 16.7417 21.0718 17.2102 21.1962 17.6458L21.8164 19.8164L18.827 18.9623C18.5226 18.8753 18.1984 18.8869 17.9009 18.9954C17.0125 19.3195 16.0335 19.5004 15.0004 19.5004C13.3963 19.5004 11.948 19.0756 10.7614 18.3655C10.1862 18.4543 9.5976 18.5004 9.00045 18.5004C8.8163 18.5004 8.63317 18.4961 8.45117 18.4876C10.0922 20.0347 12.4194 21.0004 15.0004 21.0004C16.209 21.0004 17.362 20.7886 18.415 20.4046L22.2697 21.5059C23.024 21.7214 23.7214 21.024 23.5059 20.2697L22.6385 17.2337C23.5016 16.0059 24.0004 14.5549 24.0004 13.0004C24.0004 9.82057 21.9133 7.07407 18.8904 5.78418Z" fill="white"/>
</g>
</g>
<defs>
<clipPath id="clip0_6367_15109">
<rect width="24" height="24" fill="white"/>
</clipPath>
</defs>
</svg>
