<svg width="24" height="24" viewBox="0 0 24 24" fill="none" xmlns="http://www.w3.org/2000/svg">
<g clip-path="url(#clip0_8488_206)">
<circle cx="12" cy="12" r="11.25" stroke="#151615" stroke-width="1.5"/>
<g clip-path="url(#clip1_8488_206)">
<path d="M17.2812 15.6562H11.5938L8.34375 18.0938V15.6562H6.71875C6.50326 15.6562 6.2966 15.5707 6.14423 15.4183C5.99185 15.2659 5.90625 15.0592 5.90625 14.8438V6.71875C5.90625 6.50326 5.99185 6.2966 6.14423 6.14423C6.2966 5.99185 6.50326 5.90625 6.71875 5.90625H17.2812C17.4967 5.90625 17.7034 5.99185 17.8558 6.14423C18.0082 6.2966 18.0938 6.50326 18.0938 6.71875V14.8438C18.0938 15.0592 18.0082 15.2659 17.8558 15.4183C17.7034 15.5707 17.4967 15.6562 17.2812 15.6562Z" stroke="black" stroke-width="1.2" stroke-linecap="round" stroke-linejoin="round"/>
<path d="M12 10.9844C11.8878 10.9844 11.7969 10.8934 11.7969 10.7813C11.7969 10.6691 11.8878 10.5781 12 10.5781" stroke="black"/>
<path d="M12 10.9844C12.1122 10.9844 12.2031 10.8934 12.2031 10.7812C12.2031 10.6691 12.1122 10.5781 12 10.5781" stroke="black"/>
<path d="M9.5625 10.9844C9.45032 10.9844 9.35938 10.8934 9.35938 10.7813C9.35938 10.6691 9.45032 10.5781 9.5625 10.5781" stroke="black"/>
<path d="M9.5625 10.9844C9.67468 10.9844 9.76563 10.8934 9.76563 10.7813C9.76563 10.6691 9.67468 10.5781 9.5625 10.5781" stroke="black"/>
<path d="M14.4375 10.9844C14.3253 10.9844 14.2344 10.8934 14.2344 10.7813C14.2344 10.6691 14.3253 10.5781 14.4375 10.5781" stroke="black"/>
<path d="M14.4375 10.9844C14.5497 10.9844 14.6406 10.8934 14.6406 10.7813C14.6406 10.6691 14.5497 10.5781 14.4375 10.5781" stroke="black"/>
</g>
</g>
<defs>
<clipPath id="clip0_8488_206">
<rect width="24" height="24" fill="white"/>
</clipPath>
<clipPath id="clip1_8488_206">
<rect width="14" height="14" fill="white" transform="translate(5 5)"/>
</clipPath>
</defs>
</svg>
