<svg width="24" height="24" viewBox="0 0 24 24" fill="none" xmlns="http://www.w3.org/2000/svg">
<g clip-path="url(#clip0_8488_176)">
<path fill-rule="evenodd" clip-rule="evenodd" d="M11.2245 14.0108V19.1444C11.2245 19.6169 10.8773 20 10.449 20H6.57163C6.14334 20 5.79615 19.6169 5.79615 19.1444V11.4441H4.38852C4.02552 11.4441 3.86155 10.9429 4.14081 10.6871L11.0092 4.39469C11.5836 3.86844 12.4164 3.86844 12.9908 4.39469L19.8592 10.6871C20.1384 10.9429 19.9745 11.4441 19.6115 11.4441H18.2038V19.1444C18.2038 19.6169 17.8567 20 17.4284 20H13.5509C13.1227 20 12.7755 19.6169 12.7755 19.1444V14.0108H11.2245ZM6.95937 11.4441L6.95937 11.4407V9.77306L11.7523 5.38207C11.8959 5.2505 12.1041 5.2505 12.2477 5.38207L17.0406 9.77306V18.7166H13.9387V14.0108V14.0076V13.583C13.9387 13.1105 13.5915 12.7274 13.1632 12.7274H10.8368C10.4085 12.7274 10.0613 13.1105 10.0613 13.583L10.0613 18.7166H6.95937V11.4441Z" fill="#484869"/>
<circle cx="12" cy="12" r="11.25" stroke="#484869" stroke-width="1.5"/>
</g>
<defs>
<clipPath id="clip0_8488_176">
<rect width="24" height="24" fill="white"/>
</clipPath>
</defs>
</svg>
