<svg width="24" height="24" viewBox="0 0 24 24" fill="none" xmlns="http://www.w3.org/2000/svg">
<path d="M11.7832 16.9495C11.5071 16.9495 11.2832 16.7256 11.2832 16.4495V10.5859C11.2832 10.3097 11.5071 10.0859 11.7832 10.0859H12.2166C12.4928 10.0859 12.7166 10.3097 12.7166 10.5859V16.4495C12.7166 16.7256 12.4928 16.9495 12.2166 16.9495H11.7832Z" fill="#484869"/>
<path d="M12.0057 8.44975C11.7564 8.44975 11.5423 8.36665 11.3633 8.20046C11.1875 8.03107 11.0996 7.82972 11.0996 7.59641C11.0996 7.35991 11.1875 7.15856 11.3633 6.99236C11.5423 6.82297 11.7564 6.73828 12.0057 6.73828C12.255 6.73828 12.4675 6.82297 12.6433 6.99236C12.8223 7.15856 12.9118 7.35991 12.9118 7.59641C12.9118 7.82972 12.8223 8.03107 12.6433 8.20046C12.4675 8.36665 12.255 8.44975 12.0057 8.44975Z" fill="#484869"/>
<path fill-rule="evenodd" clip-rule="evenodd" d="M22 12C22 17.5228 17.5228 22 12 22C6.47715 22 2 17.5228 2 12C2 6.47715 6.47715 2 12 2C17.5228 2 22 6.47715 22 12ZM20.5 12C20.5 16.6944 16.6944 20.5 12 20.5C7.30558 20.5 3.5 16.6944 3.5 12C3.5 7.30558 7.30558 3.5 12 3.5C16.6944 3.5 20.5 7.30558 20.5 12Z" fill="#151615"/>
</svg>
