<svg width="20" height="20" viewBox="0 0 20 20" fill="none" xmlns="http://www.w3.org/2000/svg">
<path d="M16.3661 7.61667C16.3661 13.1833 9.99948 18.75 9.99948 18.75C9.99948 18.75 3.63281 13.1833 3.63281 7.61667C3.63281 5.92812 4.30358 4.30874 5.49757 3.11475C6.69155 1.92077 8.31093 1.25 9.99948 1.25C11.688 1.25 13.3074 1.92077 14.5014 3.11475C15.6954 4.30874 16.3661 5.92812 16.3661 7.61667Z" stroke="#C90000" stroke-width="1.25" stroke-miterlimit="10"/>
<path d="M10.0005 10.0001C11.3168 10.0001 12.3839 8.93301 12.3839 7.61673C12.3839 6.30045 11.3168 5.2334 10.0005 5.2334C8.68424 5.2334 7.61719 6.30045 7.61719 7.61673C7.61719 8.93301 8.68424 10.0001 10.0005 10.0001Z" stroke="#C90000" stroke-width="1.25" stroke-miterlimit="10"/>
</svg>
