<svg width="24" height="24" viewBox="0 0 24 24" fill="none" xmlns="http://www.w3.org/2000/svg">
<path fill-rule="evenodd" clip-rule="evenodd" d="M12 12C13.1046 12 14 11.1046 14 10C14 8.89543 13.1046 8 12 8C10.8954 8 10 8.89543 10 10C10 11.1046 10.8954 12 12 12ZM12 13.5C13.933 13.5 15.5 11.933 15.5 10C15.5 8.06701 13.933 6.5 12 6.5C10.067 6.5 8.5 8.06701 8.5 10C8.5 11.933 10.067 13.5 12 13.5Z" fill="#151615"/>
<path fill-rule="evenodd" clip-rule="evenodd" d="M10.9776 21.9484C11.3137 21.9825 11.6548 22 12 22C17.5228 22 22 17.5228 22 12C22 6.47715 17.5228 2 12 2C6.47715 2 2 6.47715 2 12C2 14.4815 2.90389 16.752 4.4004 18.5C5.77451 20.105 7.64823 21.2696 9.78062 21.7528C10.1714 21.8414 10.5709 21.9071 10.9776 21.9484ZM17.4776 18.4999C16.0365 19.7156 14.1856 20.4608 12.1616 20.4985C12.1079 20.4995 12.054 20.5 12 20.5C11.9569 20.5 11.914 20.4997 11.8711 20.499C9.83437 20.4688 7.97122 19.7221 6.52238 18.4999C8.00263 17.2509 9.9131 16.5 12 16.5C14.0869 16.5 15.9973 17.2509 17.4776 18.4999ZM18.5375 17.4327C16.7845 15.9169 14.4993 15 12 15C9.50064 15 7.21545 15.9169 5.46245 17.4327C4.23701 15.9597 3.5 14.0659 3.5 12C3.5 7.30558 7.30558 3.5 12 3.5C16.6944 3.5 20.5 7.30558 20.5 12C20.5 14.0659 19.763 15.9597 18.5375 17.4327Z" fill="#151615"/>
</svg>
